<svg width="32" height="32" viewBox="0 0 32 32" fill="none" xmlns="http://www.w3.org/2000/svg">
  <rect width="32" height="32" rx="6" fill="#EC4899"/>
  <path d="M16 24.5C15.5 24.5 15 24.2 14.5 23.7C13.5 22.7 12.5 21.5 11.5 20.2C10.5 18.9 9.5 17.4 8.5 15.7C7.5 14 7 12.5 7 11C7 9.5 7.5 8.2 8.5 7.2C9.5 6.2 10.8 5.7 12.3 5.7C13.2 5.7 14 5.9 14.7 6.3C15.4 6.7 16 7.3 16 8C16 7.3 16.6 6.7 17.3 6.3C18 5.9 18.8 5.7 19.7 5.7C21.2 5.7 22.5 6.2 23.5 7.2C24.5 8.2 25 9.5 25 11C25 12.5 24.5 14 23.5 15.7C22.5 17.4 21.5 18.9 20.5 20.2C19.5 21.5 18.5 22.7 17.5 23.7C17 24.2 16.5 24.5 16 24.5Z" fill="white"/>
</svg>